<svg xmlns="http://www.w3.org/2000/svg" viewBox="0 0 520 180" role="img" aria-labelledby="title desc">
  <title id="title">Mount Malindang Preliminary Health Assessment</title>
  <desc id="desc">Mountain landscape with a healthcare cross and referral path.</desc>
  <rect width="520" height="180" rx="24" fill="#f4fbf7"/>
  <circle cx="82" cy="78" r="55" fill="#1f4d4d"/>
  <path d="M34 111 69 62l17 23 14-18 32 44H34Z" fill="#72b79a"/>
  <path d="m48 111 30-34 16 19 11-13 24 27H48Z" fill="#d7efe1"/>
  <rect x="72" y="35" width="20" height="56" rx="4" fill="#fff"/>
  <rect x="54" y="53" width="56" height="20" rx="4" fill="#fff"/>
  <path d="M148 123c44-34 75-37 112-20 31 14 52 14 76-4" fill="none" stroke="#d97706" stroke-width="6" stroke-linecap="round"/>
  <path d="m326 91 16 7-13 12" fill="none" stroke="#d97706" stroke-width="6" stroke-linecap="round" stroke-linejoin="round"/>
  <text x="154" y="64" font-family="Georgia,serif" font-size="30" font-weight="700" fill="#1f4d4d">MOUNT MALINDANG</text>
  <text x="154" y="92" font-family="Arial,sans-serif" font-size="16" font-weight="700" fill="#2a7f62">PRELIMINARY HEALTH ASSESSMENT</text>
  <text x="154" y="116" font-family="Arial,sans-serif" font-size="15" fill="#536b68">AND HEALTHCARE REFERRAL</text>
  <circle cx="360" cy="99" r="5" fill="#d97706"/>
</svg>
